<svg width="375" height="400" viewBox="0 0 375 400" fill="none" xmlns="http://www.w3.org/2000/svg">
<rect width="400" height="400" transform="translate(-13)" fill="#F5F5FA"/>
<path d="M261.957 84.1431C258.782 75.6669 255.47 66.8233 233.045 72.805C221.004 76.0169 210.91 87.365 202.659 104.217C196.451 117.62 191.205 134.951 187.021 155.731C178.471 198.192 174.869 253.118 176.553 306.521L172.821 306.638L172.772 305.028C171.633 266.465 173.232 227.183 177.45 192.356C159.504 173.704 139.049 159.003 124.143 154.12C88.8208 146.331 79.4891 166.908 79.7206 185.264C79.7629 188.62 80.9358 191.412 82.1175 194.224C83.3393 197.132 84.5704 200.062 84.5704 203.661C84.5704 206.049 79.2321 210.979 72.2928 217.389C58.6503 229.991 38.8199 248.308 41.2001 264.248C43.3996 278.98 57.3482 290.165 70.1873 296.179C71.4443 296.768 72.8133 297.862 74.4606 299.178C75.6321 300.114 76.9444 301.162 78.4571 302.222L78.5734 302.302C79.7617 303.121 81.7229 304.276 84.457 305.767L85.3005 306.224C123.98 327.09 168.872 313.033 182.86 307.844L183.678 307.538L282.876 306.433L282.863 306.356C282.836 306.194 282.791 305.954 282.734 305.644C281.802 300.59 277.422 276.853 286.748 267.287C315.871 237.413 347.805 151.921 304.386 116.096C294.791 108.179 285.27 103.366 277.958 99.6695C273.517 97.4245 269.891 95.5914 267.558 93.725C264.684 91.4265 263.333 87.8194 261.957 84.1431Z" fill="#57419D"/>
<path fill-rule="evenodd" clip-rule="evenodd" d="M86.2806 179.831C84.0945 179.451 87.958 183.786 87.958 183.786C87.958 183.786 88.4666 180.211 86.2806 179.831Z" fill="white"/>
<path fill-rule="evenodd" clip-rule="evenodd" d="M118.979 306.766C118.979 306.766 95.4971 296.942 95.4971 283.263C95.4971 279.25 98.0071 279.636 103.027 284.419C103.573 284.94 104.355 285.738 105.374 286.815C105.998 287.475 91.9049 270.363 99.006 267.162C105.928 264.041 107.538 280.241 107.9 280.017C108.302 279.768 108.185 274.867 109.787 272.7C110.65 271.533 113.188 271.283 115.108 272.7C125.197 280.144 118.979 306.766 118.979 306.766Z" fill="white"/>
<path fill-rule="evenodd" clip-rule="evenodd" d="M108.885 206.423C108.885 206.423 99.1178 205.921 97.7863 202.815C96.4549 199.709 103.698 201.474 103.698 201.474L108.885 206.423Z" fill="white"/>
<path fill-rule="evenodd" clip-rule="evenodd" d="M92.3664 191.699C90.1796 190.475 91.4232 187.558 92.3664 187.436C95.1581 187.077 97.3611 193.263 97.6688 193.883C98.2018 194.956 93.4758 192.32 92.3664 191.699Z" fill="white"/>
<path fill-rule="evenodd" clip-rule="evenodd" d="M114.853 210.452C114.853 210.452 109.505 196.818 114.455 197.892C119.406 198.967 117.982 214.817 117.982 214.817L114.853 210.452Z" fill="white"/>
<path fill-rule="evenodd" clip-rule="evenodd" d="M111.262 200.521C111.332 202.732 112.277 206.125 114.091 210.751C114.116 210.814 114.149 210.874 114.188 210.929L117.318 215.294C117.759 215.909 118.729 215.645 118.796 214.89L118.853 214.237C119.733 203.669 118.463 197.925 114.629 197.093C112.398 196.609 111.181 197.943 111.262 200.521ZM114.365 198.711C116.747 199.322 117.854 203.741 117.37 212.037L117.34 212.518L115.576 210.058L115.267 209.258C113.744 205.253 112.955 202.31 112.897 200.469L112.892 200.212C112.889 198.818 113.271 198.472 114.282 198.691L114.365 198.711Z" fill="#00160A"/>
<path fill-rule="evenodd" clip-rule="evenodd" d="M95.9667 266.335C92.5218 267.888 92.7603 271.806 95.3901 277.143L95.5921 277.546C96.0731 278.492 96.622 279.469 97.2292 280.471L97.4384 280.813L97.4123 280.796C96.4289 280.141 95.5804 279.759 94.8505 279.646C92.912 279.349 91.9237 280.777 91.9237 283.263C91.9237 292.836 100.008 300.928 115.962 307.603C116.479 307.819 117.067 307.519 117.195 306.972C121.415 288.906 120.086 277.214 112.98 271.97C110.799 270.362 107.647 270.462 106.391 272.161L106.282 272.315C105.748 273.1 105.375 274.133 105.099 275.418L105.087 275.475L105.051 275.333C104.855 274.564 104.647 273.839 104.412 273.112C103.634 270.703 102.702 268.811 101.534 267.545C99.9964 265.878 98.0848 265.38 95.9667 266.335ZM103.771 277.823L104.169 279.7L104.215 279.895C104.244 280.013 104.271 280.108 104.298 280.188C104.335 280.297 104.373 280.386 104.433 280.481C104.508 280.6 104.6 280.704 104.748 280.793C105.036 280.967 105.405 280.977 105.71 280.788C106.102 280.546 106.198 280.338 106.305 279.652L106.355 279.31C106.391 279.057 106.52 277.98 106.542 277.81C106.629 277.13 106.716 276.568 106.823 276.033C107.074 274.778 107.412 273.83 107.849 273.239C108.447 272.431 110.462 272.366 111.903 273.43L112.092 273.572C118.086 278.188 119.383 288.645 115.781 305.009L115.67 305.508L115.301 305.349C100.86 299.05 93.7371 291.668 93.7371 283.263C93.7371 281.736 94.0037 281.351 94.5753 281.439C95.5871 281.594 97.3546 282.807 99.7351 285.076L100.039 285.371C100.402 285.727 100.848 286.181 101.376 286.732L102.079 287.469C102.091 287.481 102.109 287.497 102.145 287.53L102.156 287.557C102.184 287.603 102.273 287.619 102.868 287.73L103.075 287.657C103.32 287.564 103.359 287.502 103.567 287.175L103.615 286.976C103.644 286.845 103.639 286.815 103.624 286.701L103.585 286.541C103.576 286.509 103.569 286.493 103.558 286.47L103.549 286.45C103.525 286.398 103.511 286.371 103.488 286.336L103.241 286.004L102.613 285.172C102.505 285.028 102.396 284.881 102.276 284.717C101.242 283.314 100.24 281.865 99.298 280.37C98.4157 278.969 97.6456 277.617 97.0167 276.341C94.7979 271.838 94.6209 268.931 96.7119 267.988C99.2285 266.854 101.161 268.948 102.687 273.67C103.102 274.953 103.43 276.246 103.771 277.823Z" fill="#00160A"/>
<path fill-rule="evenodd" clip-rule="evenodd" d="M98.7786 194.383L99.5234 195.061C108.759 203.491 115.189 210.218 118.616 214.885C124.599 223.033 129.42 231.483 133.483 240.431C134.927 243.611 136.234 246.76 137.522 250.103L137.873 251.02C138.275 252.076 138.663 253.118 139.086 254.274L140.889 259.248C145.765 272.599 144.151 273.25 139.509 260.264L137.685 255.228C137.303 254.182 136.953 253.236 136.602 252.303L136.337 251.604C134.946 247.947 133.547 244.546 131.987 241.111C127.969 232.261 123.203 223.908 117.292 215.858L117.021 215.493C113.509 210.817 106.99 204.057 97.674 195.599C97.3381 195.294 97.313 194.775 97.618 194.439C97.9231 194.103 98.4426 194.078 98.7786 194.383ZM77.162 175.761L88.6631 185.578C89.7412 186.503 90.5815 187.228 90.9826 187.581C91.323 187.881 91.3557 188.4 91.0557 188.741C90.7557 189.081 90.2365 189.114 89.8961 188.814L86.903 186.234C82.9283 182.829 76.6532 177.489 76.0935 177.009C75.7488 176.714 75.7085 176.196 76.0036 175.851C76.2987 175.506 76.8173 175.466 77.162 175.761Z" fill="#00160A"/>
<path fill-rule="evenodd" clip-rule="evenodd" d="M98.4178 200.13C96.9078 200.472 96.3991 201.655 97.0349 203.137C98.0954 205.611 102.027 206.889 108.844 207.239C109.601 207.278 109.999 206.354 109.45 205.831L104.263 200.883C104.159 200.784 104.031 200.714 103.892 200.68C101.362 200.064 99.5615 199.87 98.4178 200.13ZM103.292 202.218L106.675 205.443L106.471 205.424L105.961 205.37C101.606 204.882 99.1294 203.873 98.538 202.493L98.4764 202.345C98.2955 201.891 98.3607 201.82 98.7795 201.725C99.5512 201.55 100.996 201.687 103.054 202.162L103.292 202.218Z" fill="#00160A"/>
<path fill-rule="evenodd" clip-rule="evenodd" d="M93.6164 311.567C91.5572 312.753 92.3961 313.987 96.8369 315.958C101.629 318.113 110.547 322.272 125.864 323.444C149.59 325.259 171.191 321.835 198.461 321.835C236.215 321.835 252.787 330.13 266 328.217C301.422 323.089 309.447 313.136 298.88 310.567C287.278 307.748 250.403 308.092 237.99 307.281L234.148 307.035L230.848 306.952C195.118 306.075 137.847 306.952 126.661 306.952C103.843 306.952 93.6164 311.567 93.6164 311.567Z" fill="white"/>
<path fill-rule="evenodd" clip-rule="evenodd" d="M198.461 321.835C236.215 321.835 252.787 330.417 266 328.504C301.422 323.375 309.447 313.135 298.88 310.567C287.278 307.748 245.133 306.832 234.756 307.057C234.756 307.057 282.464 315.872 279.911 318.792C272.31 327.485 253.382 316.98 219.005 317.286C211.923 317.35 198.461 321.835 198.461 321.835Z" fill="#E7EAEE"/>
<path fill-rule="evenodd" clip-rule="evenodd" d="M128.926 307.325C128.007 307.33 127.269 307.332 126.661 307.332L125.62 307.335C110.786 307.404 99.9656 308.964 93.1146 312.055L93.0076 312.11C91.4074 313.031 90.7942 314.388 91.7998 315.782C92.4501 316.683 93.8114 317.534 96.1091 318.569L98.0624 319.442C100.5 320.521 101.945 321.106 104.115 321.87L104.351 321.952C110.611 324.139 117.558 325.632 125.771 326.261C131.607 326.707 137.555 326.86 144.075 326.77L146.357 326.73C150.644 326.642 154.295 326.491 160.967 326.133L172.499 325.494C183.488 324.9 190.191 324.662 198.106 324.655L198.461 324.655C212.627 324.655 224.198 325.733 237.032 327.834L238.146 328.02C240.08 328.356 250.717 330.23 253.653 330.652L253.755 330.666C258.88 331.387 262.671 331.532 266.175 331.024L267.155 330.88C283.065 328.503 294.562 324.961 300.368 321.043C306.169 317.129 305.644 312.644 299.36 311.03L299.168 310.982C293.949 309.714 284.042 309.009 268.65 308.548L265.492 308.458C264.572 308.434 263.621 308.409 262.622 308.385L249.221 308.075C244.06 307.947 240.896 307.837 238.501 307.691L234.226 307.418L230.878 307.333L227.476 307.256C217.609 307.05 205.823 306.951 192.333 306.943L188.323 306.943C178.922 306.949 169.193 306.995 158.33 307.076L128.926 307.325ZM195.471 309.386C208.935 309.41 220.609 309.528 230.263 309.758L234.117 309.855L238.499 310.135C240.911 310.279 244.068 310.388 249.15 310.513L262.057 310.811C263.579 310.848 264.985 310.885 266.334 310.922L269.496 311.015C284.169 311.471 293.707 312.166 298.592 313.353L298.884 313.427C302.935 314.49 303.068 316.278 299.004 319.021C293.447 322.771 270.634 332.818 254.513 329.392L253.772 329.288C250.364 328.781 238.945 326.22 238.272 326.108L236.617 325.837C224.255 323.846 212.972 322.803 199.372 322.758L197.394 322.758C189.261 322.78 182.256 323.052 170.353 323.71L162.094 324.17C154.105 324.606 150.296 324.762 145.325 324.852L144.925 324.859C119.719 325.837 104.351 319.965 104.351 319.965C102.339 319.247 97.1346 317.439 97.1346 317.439L96.7472 317.262C84.6045 313.139 111.116 309.842 125.642 309.775L130.17 309.757L156.474 309.53C168.72 309.435 179.502 309.384 189.931 309.382L195.471 309.386Z" fill="#00160A"/>
<path fill-rule="evenodd" clip-rule="evenodd" d="M251.487 289.718C251.487 289.718 251.423 293.334 252.536 295.008C253.65 296.681 256.754 301.336 259.641 302.561C260.531 302.939 263.927 302.987 265.967 304.179C270.066 306.574 270.979 310.888 265.967 311.802C256.018 313.616 252.536 308.372 252.536 308.372C252.536 308.372 248.438 302.561 244.33 298.708C240.222 294.855 236.949 293.695 236.949 293.695" fill="white"/>
<path d="M285.823 130.712C284.438 130.608 283.624 131.661 283.624 132.935C283.624 137.347 290.831 143.38 295.528 143.38C296.905 143.38 298.031 142.395 297.631 140.89C297.481 140.323 297.134 139.819 296.565 139.199L296.44 139.064C295.8 138.385 295.139 137.779 293.657 136.503L291.386 134.557C290.829 134.075 289.943 133.306 289.675 133.077L289.352 132.803C288.732 132.279 288.252 131.898 287.823 131.595C287.066 131.06 286.479 130.761 285.823 130.712Z" fill="white"/>
<path fill-rule="evenodd" clip-rule="evenodd" d="M239.78 217.209C239.78 217.209 237.051 209.42 230.037 207.311C227.809 206.641 237.557 221.353 228.953 226.842C226.267 228.555 221.492 229.444 215.616 230.28C189.421 234.009 181.524 224.235 165.354 219.462C158.87 217.548 127.333 209.081 122.565 252.209C119.581 279.204 142.186 287.57 162.445 291.859C203.03 300.452 265.218 297.065 284.613 268.744C307.732 234.985 272.199 205.585 267.193 202.477C265.981 201.725 269.457 211.373 269.843 216.252C270.23 221.132 267.193 222.907 267.193 222.907C267.193 222.907 265.996 217.74 255.415 216.854C244.834 215.968 239.78 217.209 239.78 217.209Z" fill="white"/>
<path fill-rule="evenodd" clip-rule="evenodd" d="M84.1012 181.269C84.472 182.143 85.3346 183.301 86.737 184.874C87.663 185.913 89.381 185.395 89.577 184.017C90.0249 180.869 89.0878 178.659 86.5605 178.22C84.5823 177.876 83.3049 179.391 84.1012 181.269ZM87.9579 183.786L87.7071 183.503C85.3472 180.81 84.8717 179.586 86.2805 179.831C87.7379 180.084 88.297 181.403 87.9579 183.786Z" fill="#00160A"/>
<path fill-rule="evenodd" clip-rule="evenodd" d="M92.262 186.625C91.3427 186.743 90.5934 187.823 90.3869 189.015C90.1495 190.385 90.6594 191.681 91.9671 192.412L92.8688 192.912C93.7384 193.389 94.5194 193.798 95.2793 194.163L95.6319 194.329C96.198 194.591 96.6561 194.774 97.0045 194.87C97.361 194.968 97.6316 194.996 97.9202 194.89C98.5373 194.665 98.6455 194.082 98.4322 193.586L98.3648 193.435C98.2795 193.236 98.069 192.734 97.9478 192.454L97.9216 192.393C97.5915 191.638 97.255 190.942 96.8844 190.278C95.5122 187.82 94.0366 186.397 92.262 186.625ZM95.6251 191.385C95.8472 191.802 96.0591 192.237 96.2674 192.698L96.3361 192.853L96.1347 192.759L95.9878 192.689C95.0143 192.221 93.9855 191.668 92.7657 190.985C92.107 190.617 91.8724 190.021 91.9984 189.294C92.0531 188.977 92.1772 188.672 92.3326 188.448C92.3801 188.379 92.4271 188.324 92.4692 188.283L92.5151 188.243L92.4708 188.247C93.3218 188.138 94.3937 189.171 95.4564 191.075L95.6251 191.385Z" fill="#00160A"/>
<path fill-rule="evenodd" clip-rule="evenodd" d="M106.246 200.728C106.101 200.095 97.955 185.25 103.675 185.716C109.395 186.182 108.033 203.007 107.834 203.007C107.599 203.007 106.351 201.183 106.246 200.728Z" fill="white"/>
<path fill-rule="evenodd" clip-rule="evenodd" d="M100.823 187.927C100.824 189.347 101.297 191.227 102.147 193.512C102.403 194.198 102.688 194.91 103.003 195.65L103.195 196.097C103.949 197.836 105.463 200.968 105.449 200.911C105.531 201.264 105.871 201.855 106.319 202.503L106.483 202.739C107.031 203.517 107.304 203.799 107.766 203.823L107.961 203.828C108.516 203.857 108.516 204.048 108.644 203.241L108.69 202.946C108.709 202.825 108.729 202.667 108.749 202.479L108.761 202.363C108.812 201.838 108.858 201.154 108.889 200.405C108.97 198.471 108.947 196.401 108.789 194.469L108.746 193.979C108.234 188.564 106.749 185.146 103.741 184.901C101.819 184.744 100.823 185.947 100.823 187.927ZM103.608 186.531C105.525 186.687 106.756 189.691 107.159 194.603C107.311 196.462 107.334 198.466 107.255 200.337L107.228 200.893L107.199 200.843C107.12 200.708 107.066 200.605 107.048 200.56L107.043 200.545C107.008 200.391 105.367 196.995 104.695 195.446C104.315 194.571 103.975 193.736 103.68 192.942C102.893 190.826 102.459 189.104 102.459 187.927C102.459 186.855 102.733 186.487 103.522 186.525L103.608 186.531Z" fill="#00160A"/>
<path fill-rule="evenodd" clip-rule="evenodd" d="M128.725 230.886C128.725 230.886 130.517 228.396 131.524 227.16C132.531 225.924 133.61 224.889 133.61 224.889C133.61 224.889 109.286 222.468 100.861 216.197C89.8584 208.007 79.989 194.425 70.0477 191.552C58.163 188.117 53.7644 196.083 50.3364 196.733C39.8938 198.711 20.7681 204.342 29.5135 221.348C32.2135 226.599 40.9598 229.04 47.1216 226.113C53.9995 222.846 62.4695 214.843 71.3776 214.843C81.6789 214.843 83.4725 223.282 96.5491 227.756C104.575 230.502 128.725 230.886 128.725 230.886Z" fill="white"/>
<path fill-rule="evenodd" clip-rule="evenodd" d="M157.689 291.064C157.689 291.064 163.627 297.546 166.088 301.717C168.548 305.887 167.686 308.148 171.102 310.076C176.234 312.972 181.523 312.241 183.877 310.701C186.23 309.161 184.022 305.22 179.089 305.22C177.875 305.22 176.448 302.434 175.757 300.59C175.066 298.747 175.382 294.21 175.382 294.21L157.689 291.064Z" fill="white"/>
<path fill-rule="evenodd" clip-rule="evenodd" d="M268.294 204.11C268.294 204.11 306.986 251.566 252.575 279.422C214.521 298.904 152.001 288.386 152.001 288.386C152.001 288.386 220.062 306.683 264.546 284.623C292.93 270.548 298.544 246.622 285.003 222.263C281.459 215.888 268.294 204.11 268.294 204.11Z" fill="#E7EAEE"/>
<path fill-rule="evenodd" clip-rule="evenodd" d="M266.022 201.743C266.509 201.097 267.269 201.089 267.836 201.441C269.663 202.575 272.968 205.319 276.146 208.538C280.558 213.006 284.497 218.069 287.517 223.526C295.787 238.466 295.048 254.108 284.553 269.434C275.276 282.98 257.126 291.156 231.649 294.819C209.365 298.022 183.568 297.579 162.193 293.053L161.121 292.822C148.887 290.152 139.869 286.759 133.046 281.516C124.096 274.639 119.922 265.016 121.353 252.075C123.518 232.486 131.263 221.599 142.937 217.785C147.277 216.367 151.926 216.019 156.723 216.492C160.013 216.816 162.775 217.428 165.699 218.291L166.219 218.447C169.396 219.41 172.1 220.474 176.27 222.322L179.352 223.703C185.74 226.566 189.437 227.924 194.222 228.889C200.243 230.103 206.873 230.246 214.917 229.146L216.111 228.976C222.677 228.019 226.201 227.15 228.297 225.813C230.751 224.248 231.627 221.711 231.276 218.198C231.116 216.6 230.719 214.915 230.093 212.95L229.921 212.42C229.65 211.617 228.86 209.361 228.715 208.871C228.535 208.264 228.452 207.841 228.482 207.448C228.556 206.461 229.421 205.852 230.389 206.143C235.505 207.682 239.179 212.15 241.436 219.394C241.636 220.037 241.277 220.721 240.634 220.921C239.99 221.122 239.306 220.763 239.106 220.119C237.388 214.605 234.88 211.018 231.595 209.266L231.379 209.154L232.267 211.745L232.292 211.819C234.547 221.436 232.871 228.976 217.704 231.307C216.869 231.435 200.096 232.878 193.132 231.155C182.582 228.544 167.609 218.801 158.633 218.447C149.657 218.093 147.683 218.801 143.695 220.104C132.994 223.6 124.094 234.923 122.298 253.623C121.35 263.498 126.684 273.503 135.43 279.666C157.689 295.352 209.306 296.099 231.302 292.937C256.169 289.362 274.797 280.92 283.607 268.055C293.54 253.549 293.233 238.889 285.383 224.707C282.479 219.46 278.674 214.571 274.41 210.252C272.468 208.285 270.481 206.507 268.869 205.21L268.598 204.994L268.834 205.924L269.589 208.827L269.865 209.914C269.908 210.086 269.949 210.253 269.99 210.419L270.134 211.015C270.644 213.16 270.954 214.824 271.059 216.156C271.351 219.837 270.285 222.513 267.808 223.96C267.227 224.3 266.48 224.104 266.14 223.522C265.8 222.94 265.996 222.193 266.577 221.853C268.15 220.935 268.851 219.174 268.627 216.349C268.534 215.168 268.241 213.603 267.757 211.566L267.62 210.998C267.56 210.756 267.499 210.507 267.433 210.248L266.37 206.14C266.212 205.518 266.093 205.029 265.998 204.603L265.97 204.477C265.808 203.737 265.723 203.207 265.718 202.808C265.713 202.4 265.771 202.075 266.022 201.743Z" fill="#00160A"/>
<path fill-rule="evenodd" clip-rule="evenodd" d="M239.682 215.865L240.554 215.718C246.309 214.769 250.953 214.425 254.502 214.694C258.247 214.978 262.216 215.99 266.411 217.726C266.964 217.955 267.227 218.589 266.998 219.143C266.769 219.696 266.135 219.959 265.581 219.73C261.59 218.078 257.842 217.122 254.339 216.857C250.818 216.59 246.049 216.969 240.05 218.002C239.46 218.104 238.899 217.708 238.798 217.117C238.696 216.527 239.092 215.966 239.682 215.865Z" fill="#00160A"/>
<path fill-rule="evenodd" clip-rule="evenodd" d="M246.618 210.999C249.215 210.466 251.588 210.742 253.704 211.835C255.73 212.881 257.486 214.198 258.967 215.783C259.277 216.115 259.259 216.635 258.928 216.944C258.596 217.254 258.076 217.236 257.766 216.905C256.416 215.459 254.811 214.256 252.95 213.295C251.179 212.38 249.189 212.149 246.949 212.609C246.504 212.7 246.07 212.414 245.979 211.969C245.887 211.525 246.174 211.091 246.618 210.999Z" fill="#00160A"/>
<path fill-rule="evenodd" clip-rule="evenodd" d="M251.87 206.697C252.103 206.307 252.607 206.18 252.997 206.413C255.08 207.659 256.805 209.053 258.168 210.597C259.544 212.156 260.673 214.149 261.562 216.571C261.718 216.997 261.5 217.469 261.074 217.625C260.648 217.782 260.176 217.563 260.019 217.137C259.197 214.897 258.168 213.081 256.936 211.685C255.69 210.274 254.097 208.986 252.153 207.824C251.764 207.591 251.637 207.086 251.87 206.697Z" fill="#00160A"/>
<path fill-rule="evenodd" clip-rule="evenodd" d="M228.065 226.219C228.408 225.729 229.085 225.61 229.575 225.954C230.066 226.297 219.596 241.207 219.596 244.1C219.596 247.237 221.137 249.336 225.242 252.648L226.981 254.03L227.487 254.436C230.032 256.492 231.513 257.934 232.773 259.765C234.534 262.324 235.363 265.182 235.152 268.571C234.891 272.75 233.63 275.639 231.131 278.972L230.905 279.27C230.624 279.633 229.387 281.213 229.048 281.675C227.839 283.326 227.27 284.569 227.167 286.029C226.711 292.459 229.737 300.224 236.308 309.295C236.659 309.78 236.551 310.458 236.066 310.809C235.581 311.161 234.903 311.052 234.551 310.567C227.709 301.122 224.505 292.901 225.004 285.875C225.136 284.012 225.815 282.468 227.137 280.618L227.299 280.394C227.687 279.863 229.106 278.053 229.226 277.896C231.606 274.773 235.048 270.204 232.292 261.51C230.905 257.132 217.732 254.03 217.299 244.712C217.197 242.517 220.856 236.509 228.065 226.219Z" fill="#00160A"/>
<path d="M232.052 271.301L230.539 271.317C221.58 271.432 216.132 271.883 214.448 272.605L214.387 272.632C211.912 273.767 209.965 275.307 208.477 277.151C207.321 278.584 206.504 280.12 205.97 281.653C205.811 282.109 205.688 282.537 205.596 282.925L205.534 283.201L208.125 286.522C208.151 286.555 208.174 286.589 208.196 286.624L208.221 286.66L208.303 286.779C208.862 287.591 209.498 288.384 210.315 289.31L210.692 289.729C211.363 290.462 213.5 292.765 214.226 293.594C215.78 295.368 217.088 297.075 218.341 299.034C220.251 302.021 221.936 305.47 223.448 309.646L223.557 309.952L223.665 310.265C223.798 310.652 223.927 311.049 224.067 311.497L224.706 313.591C225.648 316.678 226.307 318.095 227.351 318.954L227.527 319.095C228.895 320.16 230.171 320.423 233.716 320.536L234.753 320.565C239.466 320.694 241.925 316.951 239.228 314.231C238.382 313.378 235.592 312.716 231.029 312.439C230.432 312.403 230.993 310.863 231.029 310.265C231.066 309.667 231.58 309.212 232.177 309.248C232.706 309.28 233.214 309.317 233.701 309.359C227.657 300.6 224.707 293.137 225.176 286.522C225.309 284.658 225.109 283.929 226.43 282.079L226.683 281.733C227.164 281.09 228.408 279.504 228.52 279.357C229.537 278.022 230.246 276.929 230.815 275.735L230.927 275.495L230.964 275.409L231.027 275.269C231.327 274.585 231.643 273.405 231.966 271.751L232.052 271.301Z" fill="white"/>
<path fill-rule="evenodd" clip-rule="evenodd" d="M206.584 281.943C207.438 284.435 208.929 285.957 211.004 288.312L211.296 288.639C211.815 289.209 214.164 291.739 214.933 292.616C216.486 294.39 217.795 296.097 219.048 298.056C220.958 301.043 222.642 304.492 224.154 308.668C224.227 308.869 224.3 309.075 224.372 309.287L224.57 309.88C224.614 310.016 224.659 310.155 224.704 310.299L224.963 311.131C225.095 311.564 225.363 312.451 225.412 312.613L225.555 313.075C226.423 315.844 227.067 317.161 228.058 317.976L228.233 318.116C229.543 319.137 230.768 319.421 233.982 319.543L235.459 319.587C240.173 319.716 242.631 315.973 239.934 313.253C239.088 312.399 236.299 311.738 231.736 311.461C231.138 311.425 230.683 310.911 230.719 310.313C230.755 309.715 231.269 309.26 231.867 309.296L232.436 309.333C237.201 309.663 240.163 310.403 241.474 311.725C245.696 315.983 241.937 321.814 235.593 321.758L234.83 321.739C230.3 321.617 228.676 321.293 226.68 319.651C225.256 318.48 224.483 316.906 223.489 313.734L222.845 311.622L222.638 310.958C222.55 310.68 222.466 310.423 222.382 310.173L222.32 309.988C222.251 309.788 222.183 309.595 222.115 309.407C220.657 305.378 219.043 302.074 217.22 299.224C216.122 297.507 214.978 295.993 213.64 294.436L213.301 294.045C212.518 293.151 209.968 290.408 209.614 290.012C207.301 287.427 205.919 285.339 204.933 282.587L204.833 282.3C202.915 276.704 200.452 274.795 197.236 275.988C196.674 276.196 190.389 279.211 196.476 275.164C202.563 271.117 206.584 281.943 206.584 281.943Z" fill="#00160A"/>
<path fill-rule="evenodd" clip-rule="evenodd" d="M244.425 243.419C243.244 243.419 241.548 240.025 241.548 238.367C241.548 236.708 245.791 237.269 245.791 237.269C245.791 237.269 250.247 237.867 249.632 239.535C249.018 241.203 245.082 243.419 244.425 243.419Z" fill="#FFB61D"/>
<ellipse cx="237.44" cy="231.209" rx="2.34015" ry="4.37179" fill="#00160A"/>
<ellipse cx="259.82" cy="232.198" rx="2.56465" ry="4.30331" fill="#00160A"/>
<path fill-rule="evenodd" clip-rule="evenodd" d="M258.147 239.423C260.1 238.583 262.262 238.425 264.609 238.937C266.905 239.438 273.82 243.766 273.578 244.15C273.336 244.534 266.334 240.996 264.259 240.543C262.235 240.101 260.421 240.234 258.795 240.932C258.378 241.111 257.895 240.919 257.716 240.502C257.537 240.085 257.73 239.602 258.147 239.423Z" fill="#00160A"/>
<path fill-rule="evenodd" clip-rule="evenodd" d="M259.391 242.262C261.442 242.371 261.976 241.903 264.785 243.727C267.594 245.55 269.693 249.844 269.309 250.086C268.925 250.327 266.683 246.497 264.11 244.568C261.538 242.64 258.503 243.492 258.527 243.039C258.55 242.611 258.896 242.277 259.316 242.262L259.391 242.262Z" fill="#00160A"/>
<path fill-rule="evenodd" clip-rule="evenodd" d="M245.15 245.199C244.58 248.74 244.724 250.994 244.937 253.509C245.15 256.024 247.161 259.645 247.363 261.159C247.564 262.673 243.559 256.431 243.317 253.785C243.075 251.139 241.358 243.946 244.357 244.28C244.357 244.28 245.214 244.806 245.15 245.199Z" fill="#00160A"/>
<path fill-rule="evenodd" clip-rule="evenodd" d="M230.227 239.856C232.048 239.856 232.786 239.9 234.559 240.249C235.004 240.337 235.294 240.769 235.207 241.214C235.119 241.659 234.687 241.949 234.242 241.862C233.611 241.737 232.401 241.209 230.394 241.231C227.651 241.26 225.263 242.782 225.144 242.53C224.95 242.12 228.406 239.856 230.227 239.856Z" fill="#00160A"/>
<path fill-rule="evenodd" clip-rule="evenodd" d="M233.206 236.328C233.647 236.432 233.921 236.874 233.817 237.316C233.712 237.758 233.27 238.031 232.828 237.927C228.884 236.997 225.718 237.022 223.486 236.935C221.29 236.849 216.365 237.193 216.221 236.763C216.076 236.332 229.167 235.375 233.206 236.328Z" fill="#00160A"/>
<path fill-rule="evenodd" clip-rule="evenodd" d="M251.506 288.633C252.105 288.644 252.582 289.138 252.571 289.737C252.532 291.948 252.842 293.509 253.439 294.407C255.946 298.175 258.071 300.717 260.065 301.563C260.12 301.586 260.249 301.619 260.451 301.658L260.75 301.712C260.974 301.749 261.92 301.892 262.086 301.919C262.709 302.017 263.223 302.112 263.724 302.225C264.831 302.476 265.752 302.797 266.514 303.243C268.806 304.581 270.318 306.539 270.465 308.463C270.635 310.687 269.019 312.347 266.162 312.868C259.147 314.148 254.237 312.894 251.65 308.997C248.958 305.18 246.269 302.014 243.588 299.499C240.949 297.024 238.607 295.433 236.586 294.717C236.022 294.517 235.727 293.897 235.927 293.332C236.127 292.768 236.747 292.473 237.311 292.673C239.655 293.504 242.233 295.255 245.072 297.917C247.867 300.54 250.65 303.816 253.44 307.772C255.478 310.842 259.522 311.875 265.773 310.735C267.627 310.397 268.379 309.624 268.303 308.628C268.217 307.507 267.15 306.126 265.42 305.115C264.88 304.799 264.154 304.546 263.245 304.34C262.853 304.251 262.444 304.174 261.96 304.095L260.392 303.851L260.09 303.798C259.714 303.727 259.447 303.657 259.218 303.56C257.727 302.927 256.196 301.566 254.592 299.648C253.534 298.384 252.723 297.245 251.634 295.608C250.747 294.275 250.357 292.309 250.403 289.698C250.413 289.1 250.907 288.623 251.506 288.633Z" fill="#00160A"/>
<path fill-rule="evenodd" clip-rule="evenodd" d="M260.265 308.639C260.372 308.28 260.75 308.076 261.108 308.183C262.225 308.517 263.015 308.886 263.497 309.324C263.954 309.739 264.406 310.377 264.869 311.242C265.045 311.572 264.921 311.983 264.591 312.159C264.26 312.336 263.85 312.211 263.673 311.881C263.277 311.141 262.909 310.621 262.585 310.327C262.287 310.056 261.659 309.763 260.72 309.482C260.362 309.375 260.158 308.998 260.265 308.639Z" fill="#00160A"/>
<path fill-rule="evenodd" clip-rule="evenodd" d="M263.801 307.205C263.919 306.849 264.303 306.657 264.658 306.775C265.614 307.094 266.325 307.456 266.797 307.885C267.265 308.311 267.714 308.998 268.169 309.957C268.33 310.295 268.186 310.699 267.848 310.859C267.51 311.02 267.105 310.876 266.945 310.538C266.559 309.725 266.198 309.172 265.885 308.889C265.577 308.608 265.023 308.325 264.23 308.062C263.875 307.943 263.683 307.56 263.801 307.205Z" fill="#00160A"/>
<path fill-rule="evenodd" clip-rule="evenodd" d="M234.786 316.544C234.905 316.189 235.288 315.997 235.643 316.115C236.6 316.433 237.31 316.796 237.782 317.225C238.251 317.65 238.7 318.338 239.155 319.296C239.316 319.634 239.172 320.039 238.833 320.199C238.495 320.36 238.091 320.216 237.931 319.878C237.545 319.065 237.183 318.512 236.871 318.228C236.562 317.948 236.008 317.665 235.216 317.401C234.86 317.283 234.668 316.899 234.786 316.544Z" fill="#00160A"/>
<path fill-rule="evenodd" clip-rule="evenodd" d="M236.758 314.244C236.876 313.889 237.26 313.697 237.615 313.815C238.571 314.133 239.282 314.496 239.754 314.925C240.222 315.35 240.672 316.038 241.127 316.996C241.287 317.334 241.143 317.738 240.805 317.899C240.467 318.059 240.063 317.915 239.902 317.577C239.517 316.764 239.155 316.212 238.843 315.928C238.534 315.647 237.98 315.365 237.187 315.101C236.832 314.983 236.64 314.599 236.758 314.244Z" fill="#00160A"/>
<path fill-rule="evenodd" clip-rule="evenodd" d="M156.956 290.264C157.398 289.86 164.883 298.445 166.488 301.165C167.005 302.042 167.414 302.886 167.777 303.789C167.889 304.068 167.993 304.343 168.106 304.654L168.531 305.856C169.163 307.611 170.212 308.329 171.635 309.131C175.809 311.487 180.739 311.458 183.283 309.794C184.694 308.871 182.788 306.305 179.089 306.305C177.359 306.305 175.872 303.987 174.741 300.971C174.212 299.558 174.079 297.303 174.3 294.134C174.342 293.537 174.86 293.086 175.457 293.128C176.055 293.17 176.505 293.688 176.464 294.285C176.263 297.166 176.38 299.164 176.772 300.209L176.886 300.505C177.648 302.414 178.768 304.136 179.089 304.136C181.695 304.136 183.9 305.14 185.086 306.737C186.34 308.426 186.175 310.494 184.47 311.609C181.228 313.73 175.431 313.764 170.569 311.02C168.69 309.96 167.867 308.862 167.096 306.787L166.682 305.622C166.544 305.233 166.425 304.915 166.298 304.598C165.974 303.792 165.613 303.046 165.154 302.268C163.558 299.564 160.801 296.067 156.889 291.797C156.485 291.355 156.515 290.669 156.956 290.264Z" fill="#00160A"/>
<path fill-rule="evenodd" clip-rule="evenodd" d="M177.036 308.639C177.144 308.28 177.521 308.076 177.88 308.183C178.996 308.517 179.786 308.886 180.269 309.324C180.726 309.739 181.177 310.377 181.64 311.242C181.817 311.572 181.692 311.983 181.362 312.159C181.032 312.336 180.621 312.211 180.445 311.881C180.049 311.141 179.681 310.621 179.357 310.327C179.059 310.056 178.431 309.763 177.492 309.482C177.133 309.375 176.929 308.998 177.036 308.639Z" fill="#00160A"/>
<path fill-rule="evenodd" clip-rule="evenodd" d="M179.586 307.533C179.705 307.178 180.088 306.986 180.444 307.104C181.4 307.422 182.11 307.785 182.583 308.214C183.051 308.639 183.5 309.327 183.955 310.285C184.116 310.623 183.972 311.028 183.633 311.188C183.295 311.349 182.891 311.205 182.731 310.866C182.345 310.054 181.984 309.501 181.671 309.217C181.362 308.937 180.808 308.654 180.016 308.39C179.66 308.272 179.468 307.888 179.586 307.533Z" fill="#00160A"/>
<path fill-rule="evenodd" clip-rule="evenodd" d="M54.5825 192.837L54.3533 192.995C53.6278 193.502 52.2304 194.522 51.9227 194.738L51.8911 194.76C51.0938 195.309 50.5554 195.588 50.1346 195.667C42.6997 197.076 36.2787 198.653 31.8833 201.98C25.7374 206.634 22.4175 214.77 26.6286 222.959C29.6251 228.786 40.9534 230.244 47.5869 227.092C48.7218 226.553 49.9307 225.878 51.3892 224.986L51.9955 224.612C52.2053 224.481 52.4211 224.346 52.6508 224.2L54.239 223.187L55.9753 222.075L56.6109 221.673C62.9954 217.662 67.0517 215.927 71.3776 215.927C74.9534 215.927 77.4697 216.909 80.6308 219.228L80.8692 219.404C81.4181 219.815 84.9805 222.656 86.1833 223.532C89.3 225.801 92.3774 227.475 96.1981 228.782L96.534 228.894C102.125 230.703 112.821 231.717 128.708 231.97C129.063 231.975 129.398 231.807 129.605 231.519L130.225 230.664C131.114 229.443 131.828 228.503 132.364 227.845C133.008 227.055 133.674 226.33 134.361 225.672C135.029 225.031 134.639 223.902 133.718 223.81L132.762 223.713C117.255 222.1 106.817 219.278 101.508 215.327L101.121 215.037C98.2901 212.896 95.5863 210.48 91.4649 206.526L86.1388 201.41C84.033 199.403 83.2929 198.751 81.8177 197.498L81.5866 197.302C78.1377 194.377 75.1452 192.372 72.2425 191.175C71.6055 190.913 70.9747 190.691 70.3487 190.51C63.885 188.642 59.2447 189.68 54.5825 192.837ZM69.7466 192.593C70.2947 192.752 70.8509 192.948 71.4161 193.181C73.9883 194.241 76.7109 196.043 79.8669 198.688L81.1019 199.738C82.4613 200.907 83.4025 201.782 86.5355 204.792L90.2508 208.366C94.4585 212.395 97.2145 214.835 100.213 217.067L100.389 217.196C105.837 221.153 115.733 223.935 130.128 225.605L131.305 225.738L131.289 225.756C131.153 225.912 131.018 226.071 130.884 226.232L130.588 226.593L130.361 226.876C129.932 227.42 129.421 228.094 128.828 228.901L128.177 229.792L126.859 229.767C111.915 229.464 101.901 228.441 96.9001 226.73C93.4376 225.545 90.6338 224.047 87.8001 222.024L87.4598 221.779C86.3053 220.938 82.757 218.108 82.1671 217.667C78.5475 214.963 75.5665 213.758 71.3776 213.758C66.5216 213.758 62.1801 215.613 55.4682 219.83L54.4366 220.484L52.2246 221.902C51.5681 222.321 51.0493 222.648 50.5449 222.959L49.9846 223.302C48.7084 224.075 47.6425 224.665 46.6563 225.133C41.0329 227.805 32.9111 225.584 30.4778 220.852C26.7561 213.615 28.0656 208.296 33.384 204.27C37.4468 201.193 43.4062 199.149 50.5383 197.798C51.2848 197.657 52.0043 197.299 52.9429 196.668L53.1215 196.546C53.3997 196.354 55.0873 195.121 55.7314 194.679L55.7986 194.633C59.9625 191.813 63.9556 190.92 69.7466 192.593Z" fill="#00160A"/>
<path fill-rule="evenodd" clip-rule="evenodd" d="M329.445 222.065L329.343 222.313L329.138 222.826C326.47 229.593 324.116 239.96 322.06 253.952L321.94 254.775L321.933 254.734C321.137 250.042 320.132 246.396 318.909 243.785C316.783 239.248 313.754 237.535 310.175 239.163C298.561 244.446 299.254 265.931 311.554 303.687C311.717 304.189 312.185 304.529 312.714 304.529H326.066C326.425 304.529 326.765 304.371 326.997 304.098C343.671 284.431 351.138 271.21 349.313 263.945L349.253 263.715C347.592 257.466 343.438 256.127 337.515 259.485L337.304 259.606L337.599 258.926C347.876 235.119 349.762 220.461 342.818 214.748C337.72 210.554 333.068 213.329 329.445 222.065ZM341.466 215.69C347.579 220.719 345.407 237.189 333.811 262.715C333.28 263.882 346.946 254.734 346.946 264.54L346.99 264.726C348.306 270.762 341.515 282.947 326.543 300.849L325.5 302.089L312.714 303C312.714 303 295.475 246.082 311.186 241.384C315.706 240.032 319.042 246.597 320.696 264.356C320.832 265.81 322.944 265.841 323.122 264.391L323.267 263.221C325.643 244.228 328.463 230.804 331.699 222.999L331.884 222.559C334.907 215.481 338.051 212.88 341.466 215.69Z" fill="#00160A"/>
<path d="M341.267 216.632C347.381 221.661 344.904 237.061 333.308 262.587C332.777 263.754 334.176 264.845 335.179 264.046L335.586 263.725C342.174 258.597 345.552 258.989 346.946 264.54L346.99 264.726C348.306 270.762 341.515 282.947 326.543 300.849L325.5 302.089H313.6L313.173 300.759C301.955 265.598 301.512 245.784 311.186 241.384C315.648 239.354 319.042 246.597 320.696 264.356C320.832 265.81 322.944 265.841 323.122 264.391L323.267 263.221C325.643 244.228 328.463 230.804 331.699 222.999L331.884 222.559C334.907 215.481 337.852 213.822 341.267 216.632Z" fill="white"/>
<ellipse cx="309.479" cy="256.938" rx="4.33746" ry="4.33748" fill="#E7EAEE"/>
<ellipse cx="336.588" cy="228.745" rx="4.33745" ry="4.33749" fill="#E7EAEE"/>
<circle cx="338.757" cy="270.493" r="4.33748" fill="#E7EAEE"/>
<path fill-rule="evenodd" clip-rule="evenodd" d="M108.859 307.542C101.203 307.663 74.8733 309.614 74.4185 308.637C73.8366 307.388 102.549 305.744 108.807 305.645L110.768 305.619C116.458 305.557 108.859 307.542 108.859 307.542ZM221.482 305.005C222.156 304.987 222.716 305.518 222.734 306.192C222.752 306.865 222.22 307.426 221.547 307.444L210.649 307.713C203.867 307.869 196.005 308.03 184.389 308.259C183.715 308.272 183.158 307.736 183.145 307.063C183.132 306.389 183.667 305.832 184.341 305.819L204.911 305.4C211.156 305.265 216.174 305.145 221.482 305.005ZM249.589 304.436C250.263 304.425 250.818 304.963 250.828 305.637C250.839 306.31 250.302 306.865 249.628 306.876L246.769 306.911L238.023 306.971C236.192 306.99 234.758 307.015 233.068 307.056C232.395 307.073 231.835 306.54 231.819 305.867C231.802 305.193 232.335 304.634 233.008 304.617L235.16 304.571C236.568 304.545 238 304.529 239.902 304.515L247.175 304.467C248.02 304.459 248.786 304.449 249.589 304.436ZM328.65 302.089C328.65 302.089 330.841 301.711 346.831 302.908C347.503 302.959 348.007 303.544 347.957 304.216C347.906 304.888 339.999 304.549 329.189 304.53L326.216 304.534C318.278 304.57 310.905 304.784 298.666 305.288L283.219 305.941C276.628 306.211 272.695 306.342 267.913 306.455C267.239 306.471 266.681 305.938 266.665 305.264C266.649 304.591 267.182 304.032 267.855 304.016L271.696 303.916C276.264 303.783 280.958 303.6 289.281 303.244L298.106 302.869C311.905 302.299 319.579 302.089 328.65 302.089Z" fill="#00160A"/>
<path d="M291.687 126.484L291.966 125.97C294.154 122.008 296.059 120.041 298.281 120.683C298.461 120.735 298.638 120.806 298.811 120.896C300.173 121.602 300.5 122.914 300.118 124.706L300.093 124.816L300.157 124.724C300.802 123.807 301.418 123.099 302.056 122.574L302.193 122.464C303.611 121.36 305.116 121.257 306.479 122.408C308.655 124.245 308.408 127.326 306.631 129.222L306.533 129.324C306.286 129.574 306.137 130.114 305.972 131.386L305.828 132.5C305.656 133.785 305.54 134.349 305.269 135.22C304.757 136.864 303.917 138.236 302.61 139.357C300.966 140.765 298.193 140.569 294.286 138.963C293.867 138.791 293.666 138.311 293.839 137.891C294.011 137.471 288.359 132.487 288.188 132.705L288.133 132.769C287.818 133.096 287.298 133.106 286.971 132.792L286.177 132.027C285.699 131.566 285.937 130.758 286.589 130.63C287.783 130.395 288.71 130.137 289.361 129.861C289.907 129.629 290.206 129.407 290.277 129.263C290.277 129.263 291.464 126.9 291.687 126.484Z" fill="white"/>
<path fill-rule="evenodd" clip-rule="evenodd" d="M285.823 130.712C284.438 130.608 283.624 131.661 283.624 132.935C283.624 137.347 290.831 143.38 295.528 143.38C296.905 143.38 298.031 142.395 297.631 140.89C297.481 140.323 297.134 139.819 296.565 139.199L296.44 139.064C295.8 138.385 295.139 137.779 293.657 136.503L291.386 134.557C290.829 134.075 289.943 133.306 289.675 133.077L289.352 132.803C288.732 132.279 288.252 131.898 287.823 131.595C287.066 131.06 286.479 130.761 285.823 130.712ZM285.267 132.935C285.267 131.21 287.738 133.595 290.713 136.147L292.689 137.837C295.108 139.923 298.06 142.092 296.565 142.251C291.828 142.755 285.267 136.474 285.267 132.935Z" fill="#00160A"/>
<path fill-rule="evenodd" clip-rule="evenodd" d="M286.203 119.151C286.542 118.85 288.238 117.665 287.362 119.22C286.486 120.775 281.422 122.748 286.486 130.611C286.679 130.91 286.444 131.51 286.022 131.676C285.6 131.842 285.123 131.634 284.957 131.212C283.677 127.951 283.085 125.59 283.198 124.056C283.318 122.429 284.339 120.803 286.203 119.151Z" fill="#00160A"/>
<path fill-rule="evenodd" clip-rule="evenodd" d="M279.876 121.888C279.965 121.443 280.843 120.342 280.843 121.244C280.843 122.146 279.553 124.433 281.368 127.011C283.184 129.589 286.308 131.337 286.041 131.703C285.774 132.07 285.26 132.151 284.893 131.884C282.264 129.969 280.668 128.471 280.067 127.296C279.439 126.071 279.396 124.278 279.876 121.888Z" fill="#00160A"/>
<path fill-rule="evenodd" clip-rule="evenodd" d="M291.687 126.484L291.966 125.97C294.154 122.008 296.059 120.041 298.281 120.683C298.461 120.735 298.638 120.806 298.811 120.896C300.173 121.602 300.5 122.914 300.118 124.706L300.093 124.816L300.157 124.724C300.802 123.807 301.418 123.099 302.056 122.574L302.193 122.464C303.611 121.36 305.116 121.257 306.479 122.408C308.655 124.245 308.408 127.326 306.631 129.222L306.533 129.324C306.286 129.574 306.137 130.114 305.972 131.386L305.828 132.5C305.656 133.785 305.54 134.349 305.269 135.22C304.757 136.864 303.917 138.236 302.61 139.357C300.966 140.765 298.193 140.569 294.286 138.963C293.867 138.791 293.666 138.311 293.839 137.891C294.011 137.471 299.926 140.909 302.193 138.236C304.459 135.564 304.704 130.037 305.358 128.362L305.516 128.07C306.769 126.803 306.811 124.839 305.419 123.663C304.701 123.057 304.049 123.101 303.202 123.761C302.43 124.362 301.626 125.393 300.698 126.895L300.426 127.342C299.97 128.112 299.055 129.709 298.934 129.912L298.767 130.188C298.204 131.108 297.487 131.684 297.381 131.708C297.274 131.733 297.123 131.648 297.086 130.87C297.073 130.614 297.138 130.357 297.274 130.007L297.329 129.871C297.493 129.47 298.401 127.584 298.464 127.449C298.739 126.855 298.96 126.337 299.143 125.849C299.882 123.881 298.783 122.732 298.055 122.354C297.977 122.314 297.9 122.283 297.825 122.262C296.697 121.936 295.127 123.611 293.294 126.967L292.896 127.71C292.603 128.27 292.315 128.846 291.75 129.991C291.339 130.823 290.243 131.42 288.415 131.901L288.314 131.926L288.323 131.95C288.403 132.203 288.359 132.487 288.188 132.705L288.133 132.769C287.818 133.096 287.298 133.106 286.971 132.792L286.177 132.027C285.699 131.566 285.937 130.758 286.589 130.63C287.783 130.395 288.71 130.137 289.361 129.861C289.907 129.629 290.206 129.407 290.277 129.263L291.045 127.718C291.281 127.251 291.464 126.9 291.687 126.484Z" fill="#00160A"/>
<ellipse cx="302.467" cy="128.997" rx="1.86668" ry="1.53039" fill="#FFB61D"/>
<ellipse cx="297.133" cy="124.73" rx="1.86668" ry="1.53039" fill="#FFB61D"/>
<path fill-rule="evenodd" clip-rule="evenodd" d="M285.658 135.464C285.397 135.233 285.072 134.817 284.785 134.366L284.416 134.53L283.979 134.717C283.891 134.757 283.834 134.788 283.817 134.814C283.766 134.908 283.65 134.943 283.555 134.894C283.463 134.844 283.426 134.728 283.476 134.634C283.511 134.545 283.756 134.266 284.212 133.993C284.294 133.944 284.386 133.898 284.484 133.853C284.316 133.539 284.184 133.235 284.122 132.991C284.028 132.632 284.103 132.378 284.226 132.288C284.347 132.2 284.65 132.183 285.111 132.566C285.196 132.631 285.21 132.752 285.145 132.836C285.081 132.919 284.961 132.935 284.876 132.87C284.788 132.805 284.699 132.769 284.628 132.742L284.663 132.88C284.676 132.929 284.693 132.98 284.717 133.03C284.799 133.211 284.904 133.418 285.022 133.63C285.383 133.493 285.794 133.37 286.237 133.31C286.454 133.281 286.674 133.275 286.903 133.277C287.034 133.269 287.149 133.369 287.157 133.5C287.166 133.632 287.066 133.746 286.934 133.755C286.401 133.806 285.908 133.941 285.472 134.093L285.329 134.144C285.565 134.512 285.817 134.847 286.034 135.035C286.151 135.139 286.163 135.32 286.06 135.438C285.955 135.557 285.775 135.568 285.658 135.464Z" fill="#FFB61D"/>
<path fill-rule="evenodd" clip-rule="evenodd" d="M160.24 282.196C158.892 288.551 152.382 290.353 152.453 295.469C152.489 298.115 153.22 300.31 153.82 301.999C155.04 305.431 158.218 308.966 159.69 312.24C160.948 315.037 167.261 313.145 167.765 317.492C168.039 319.86 163.574 321.225 162.359 321.317C160.614 321.449 158.403 320.85 155.725 319.52C152.468 317.937 149.854 316.69 147.961 314.41C147.592 313.966 147.36 312.71 146.952 310.736C146.506 308.576 144.98 303.085 140.993 294.22C140.424 292.953 138.245 287.772 135.821 282.471C133.821 278.097 142.087 269.336 145.752 269.642C154.756 270.395 161.193 277.707 160.24 282.196Z" fill="white"/>
<path fill-rule="evenodd" clip-rule="evenodd" d="M153.928 319.613C151.687 318.279 149.843 316.741 148.398 315C148.029 314.555 147.757 312.917 147.349 310.943C147.135 309.909 139.354 291.241 136.787 284.214C136.308 282.903 137.471 283.821 137.744 284.214C139.233 286.36 148.398 300.515 152.776 313.628" fill="#E7EAEE"/>
<path fill-rule="evenodd" clip-rule="evenodd" d="M155.675 319.056L156.008 319.22C158.526 320.471 160.559 321.022 162.077 320.907C163.707 320.784 166.368 319.314 166.485 318.062C166.674 316.053 166.13 315.483 163.442 314.468C162.663 314.174 160.555 314.238 157.307 314.73C156.715 314.819 156.162 314.412 156.073 313.82C155.983 313.228 156.39 312.675 156.982 312.585L157.517 312.507C160.839 312.031 163.016 311.989 164.209 312.439L164.562 312.576C167.788 313.852 168.936 315.171 168.645 318.265C168.398 320.887 164.799 322.876 162.241 323.07C160.333 323.214 158.034 322.613 155.324 321.3L155.051 321.166C151.662 319.52 148.963 317.496 146.967 315.09C146.704 314.774 146.535 314.351 146.363 313.704L146.323 313.55C146.259 313.299 146.195 313.02 146.12 312.67L145.69 310.561L145.624 310.253C144.917 307.086 142.869 301.241 139.765 294.297L139.292 293.252C139 292.616 134.838 285.87 134.527 284.29C133.365 278.379 138.115 275.452 138.115 275.452C138.115 275.452 135.652 280.65 136.346 283.205C136.886 285.192 141.441 292.028 143.061 297.269C144.738 302.692 146.493 308.479 149.057 313.211C150.993 316.783 152.378 318.401 155.675 319.056Z" fill="#00160A"/>
<path fill-rule="evenodd" clip-rule="evenodd" d="M160.934 317.84C161.041 317.482 161.418 317.278 161.777 317.385C162.894 317.719 163.684 318.087 164.166 318.525C164.623 318.941 165.075 319.578 165.537 320.444C165.714 320.774 165.589 321.184 165.259 321.361C164.929 321.537 164.519 321.413 164.342 321.083C163.946 320.342 163.578 319.822 163.254 319.528C162.956 319.257 162.328 318.964 161.389 318.684C161.03 318.577 160.827 318.199 160.934 317.84Z" fill="#00160A"/>
<path fill-rule="evenodd" clip-rule="evenodd" d="M162.826 315.749C162.945 315.394 163.328 315.202 163.684 315.32C164.64 315.638 165.35 316.001 165.823 316.43C166.291 316.855 166.74 317.543 167.195 318.501C167.356 318.839 167.212 319.243 166.873 319.404C166.535 319.564 166.131 319.42 165.971 319.082C165.585 318.269 165.223 317.717 164.911 317.433C164.602 317.153 164.048 316.87 163.256 316.606C162.9 316.488 162.708 316.104 162.826 315.749Z" fill="#00160A"/>
<path fill-rule="evenodd" clip-rule="evenodd" d="M156.041 272.07C158.425 273.029 163.114 278.345 162.389 281.331C161.639 284.419 160.539 285.652 158.788 287.699L158.605 287.911C158.071 288.518 155.866 290.758 155.779 290.852L155.569 291.083C153.605 293.3 152.802 295.752 154.4 300.27C155.571 303.58 157.497 307.343 160.155 310.931C160.506 311.404 161.378 312.794 160.905 313.145C160.432 313.495 159.312 312.362 158.961 311.889C156.183 308.139 154.168 304.504 152.922 300.982C151.04 295.66 151.494 293.467 154.092 290.601L154.258 290.423C154.536 290.133 156.446 288.19 156.952 287.626L157.003 287.569C158.635 285.712 159.711 283.745 160.402 280.902C160.879 278.937 158.873 275.448 154.633 272.617C151.818 270.737 153.656 271.111 156.041 272.07Z" fill="#00160A"/>
</svg>
