<svg width="176" height="128" viewBox="0 0 176 128" fill="none" xmlns="http://www.w3.org/2000/svg">
<g opacity="0.4">
<path d="M87.751 3.28728C101.991 8.31853 122.277 13.2415 133.022 14.2735C143.767 15.3056 153.121 21.6949 153.898 28.5322C154.675 35.3696 163.144 54.7932 172.799 71.8788C182.454 88.9644 169.529 106.109 143.956 110.139L134.107 111.691C108.533 115.721 67.035 115.544 41.4972 111.296L36.9141 110.534C11.3763 106.286 -4.6286 95.4585 1.19691 86.3713C1.19691 86.3713 11.7523 73.8516 11.7523 69.9059C11.7523 65.9602 16.9127 55.4135 16.9127 55.4135C19.7607 47.4151 25.3314 35.3696 29.3446 28.5322C33.3577 21.6949 42.2919 11.2206 49.2825 5.15727C56.2731 -0.906028 73.5108 -1.74397 87.751 3.28728Z" fill="#421EB7"/>
</g>
<path d="M88.6626 70.8025C91.0023 76.5018 91.646 78.1893 95.4425 79.2427C106.631 82.3478 119.806 85.6964 130.257 80.6468C132.401 79.6105 132.092 107.913 135.456 124.169C135.561 124.676 135.971 125.65 135.456 125.723C131.853 126.236 127.078 128.32 124.537 125.723C119.231 120.299 115.049 104.869 115.179 104.998C115.309 105.128 109.286 104.998 106.34 104.998C101.141 104.998 95.9416 104.998 90.7423 104.998C90.3955 104.998 89.6562 104.656 89.7025 104.998C90.5765 111.443 92.2168 117.763 93.342 124.169C93.4314 124.679 93.8546 125.638 93.342 125.723C90.265 126.234 86.3511 127.747 83.9833 125.723C80.3688 122.633 79.6248 117.377 78.6645 112.729C77.5986 107.569 74.9886 95.8598 74.8716 95.9603C74.7547 96.0608 72.8049 88.9367 72.285 90.4911C69.1135 99.9726 63.9278 114.578 61.1066 124.169C60.9528 124.693 61.0848 125.642 61.6266 125.723C64.8829 126.21 68.9102 127.743 71.5051 125.723C75.3536 122.727 78.69 117.618 78.2642 112.77C77.3543 102.41 71.9814 91.0527 70.4653 80.6468C69.427 73.519 85.9601 64.2188 88.6626 70.8025Z" fill="white"/>
<path d="M88.6626 70.8025C91.0023 76.5018 91.646 78.1893 95.4425 79.2427C106.631 82.3478 119.806 85.6964 130.257 80.6468C132.401 79.6105 132.092 107.913 135.456 124.169C135.561 124.676 135.971 125.65 135.456 125.723C131.853 126.236 127.078 128.32 124.537 125.723C119.231 120.299 115.049 104.869 115.179 104.998C115.309 105.128 109.286 104.998 106.34 104.998C101.141 104.998 95.9416 104.998 90.7423 104.998C90.3955 104.998 89.6562 104.656 89.7025 104.998C90.5765 111.443 92.2168 117.763 93.342 124.169C93.4314 124.679 93.8546 125.638 93.342 125.723C90.265 126.234 86.3511 127.747 83.9833 125.723C80.3688 122.633 79.6248 117.377 78.6645 112.729C77.5986 107.569 74.9886 95.8598 74.8716 95.9603C74.7547 96.0608 72.8049 88.9367 72.285 90.4911C69.1135 99.9726 63.9278 114.578 61.1066 124.169C60.9528 124.693 61.0848 125.642 61.6266 125.723C64.8829 126.21 68.9102 127.743 71.5051 125.723C75.3536 122.727 78.69 117.618 78.2642 112.77C77.3543 102.41 71.9814 91.0527 70.4653 80.6468C69.427 73.519 85.9601 64.2188 88.6626 70.8025Z" stroke="#FB5C76" stroke-width="2" stroke-linecap="square"/>
<path d="M62.6612 74.4589C58.6468 71.9168 54.5721 69.2724 53.5677 68.5575C52.5634 67.8426 51.3985 65.8692 50.9681 64.1535C50.5377 62.4378 50.1882 59.7678 50.1882 58.1951C50.1882 56.6224 53.5664 55.3454 57.7271 55.3454C61.8879 55.3454 65.266 53.8363 65.266 51.9777C65.266 50.119 68.8772 48.6099 73.3249 48.6099C77.7725 48.6099 82.4321 49.4225 83.7234 50.4233C85.0146 51.4241 86.7619 54.2102 87.6228 56.6407C88.4836 59.0713 89.1826 62.4378 89.1826 64.1535C89.1826 65.8692 89.532 69.4678 89.9624 72.1843C90.3929 74.9009 86.5487 79.6603 81.3837 82.8058C76.2187 85.9512 71.5568 86.39 70.98 83.785C70.4032 81.18 66.6756 77.001 62.6612 74.4589Z" fill="white"/>
<path d="M62.6612 74.4589C58.6468 71.9168 54.5721 69.2724 53.5677 68.5575C52.5634 67.8426 51.3985 65.8692 50.9681 64.1535C50.5377 62.4378 50.1882 59.7678 50.1882 58.1951C50.1882 56.6224 53.5664 55.3454 57.7271 55.3454C61.8879 55.3454 65.266 53.8363 65.266 51.9777C65.266 50.119 68.8772 48.6099 73.3249 48.6099C77.7725 48.6099 82.4321 49.4225 83.7234 50.4233C85.0146 51.4241 86.7619 54.2102 87.6228 56.6407C88.4836 59.0713 89.1826 62.4378 89.1826 64.1535C89.1826 65.8692 89.532 69.4678 89.9624 72.1843C90.3929 74.9009 86.5487 79.6603 81.3837 82.8058C76.2187 85.9512 71.5568 86.39 70.98 83.785C70.4032 81.18 66.6756 77.001 62.6612 74.4589Z" stroke="#FB5C76" stroke-width="2" stroke-linecap="square"/>
<path d="M77.4494 56.1154C77.4494 56.1154 74.6928 64.8892 77.4494 67.514C80.2695 70.1994 89.1477 67.255 89.1477 67.255" fill="white"/>
<path d="M77.4494 56.1154C77.4494 56.1154 74.6928 64.8892 77.4494 67.514C80.2695 70.1994 89.1477 67.255 89.1477 67.255" stroke="#FB5C76" stroke-width="2" stroke-linecap="square"/>
<path d="M140.516 64.3294C137.66 65.284 134.369 69.4669 133.171 73.6641C131.974 77.8612 130.843 81.0877 130.648 80.8645C130.453 80.6412 133.403 79.0873 137.232 77.3967C141.061 75.7061 144.511 71.7045 144.931 68.4665C145.351 65.2286 143.372 63.3747 140.516 64.3294Z" fill="white"/>
<path d="M140.516 64.3294C137.66 65.284 134.369 69.4669 133.171 73.6641C131.974 77.8612 130.843 81.0877 130.648 80.8645C130.453 80.6412 133.403 79.0873 137.232 77.3967C141.061 75.7061 144.511 71.7045 144.931 68.4665C145.351 65.2286 143.372 63.3747 140.516 64.3294Z" stroke="#FB5C76" stroke-width="2.09323" stroke-linecap="square"/>
</svg>
