<svg width="24" height="24" viewBox="0 0 24 24" fill="none" xmlns="http://www.w3.org/2000/svg">
<path d="M20.4389 3.52328C20.2276 2.70522 19.802 1.9585 19.2063 1.36019C17.3958 -0.453396 14.2351 -0.453396 12.4245 1.36019C11.6741 2.11419 11.1944 3.09603 11.0603 4.15217C10.9262 5.20831 11.1454 6.27918 11.6835 7.19729L7.23024 11.658C5.42568 10.5891 2.92447 10.8785 1.40287 12.4002C0.504535 13.3018 0 14.5236 0 15.7974C0 17.0712 0.504535 18.293 1.40287 19.1946C1.9996 19.7914 2.74474 20.2177 3.56116 20.4293C3.77459 21.2472 4.19665 21.993 4.79378 22.5911C5.23759 23.0393 5.76592 23.3947 6.34804 23.6365C6.93016 23.8784 7.55448 24.0019 8.18468 24C8.81474 24.0016 9.43886 23.8781 10.0209 23.6364C10.603 23.3948 11.1314 23.0399 11.5756 22.5923C12.3259 21.8385 12.8055 20.8568 12.9393 19.8008C13.0732 18.7448 12.8538 17.6742 12.3154 16.7564L16.7687 12.2957C18.5756 13.3659 21.0768 13.0764 22.5972 11.5523C23.4955 10.6509 24 9.42934 24 8.15573C24 6.88212 23.4955 5.66055 22.5972 4.75916C22.0008 4.16167 21.2556 3.73495 20.4389 3.52328ZM20.903 9.85401C19.9965 10.7608 18.4174 10.762 17.5109 9.85401L16.6631 9.00487L9.03361 16.6484L9.88134 17.4975C10.33 17.9484 10.582 18.5591 10.582 19.1958C10.582 19.8324 10.33 20.4431 9.88134 20.8941C8.97366 21.8033 7.39451 21.8009 6.48923 20.8941C6.07177 20.4744 5.82734 19.9127 5.80458 19.3207L5.74822 18.2397L4.66908 18.1833C4.07831 18.1594 3.5179 17.9148 3.09833 17.4975C2.64927 17.0465 2.39709 16.4356 2.39709 15.7986C2.39709 15.1617 2.64927 14.5507 3.09833 14.0997C3.55037 13.6469 4.15229 13.3971 4.79258 13.3971C5.43287 13.3971 6.03479 13.6469 6.48803 14.0997L7.33576 14.9489L14.9665 7.30659L14.1188 6.45744C13.6697 6.00647 13.4175 5.39551 13.4175 4.75856C13.4175 4.12161 13.6697 3.51065 14.1188 3.05967C15.0252 2.15408 16.6032 2.15408 17.5097 3.05967C17.9209 3.47163 18.1644 4.03132 18.1955 4.63545L18.2531 5.71279L19.3286 5.77044C19.9317 5.80167 20.4905 6.04548 20.9018 6.45744C21.3538 6.91144 21.6032 7.51437 21.6032 8.15573C21.6032 8.79709 21.355 9.40002 20.903 9.85401Z" fill="#D1D0CE"/>
</svg>
