<svg width="24" height="21" viewBox="0 0 24 21" fill="none" xmlns="http://www.w3.org/2000/svg">
<path fill-rule="evenodd" clip-rule="evenodd" d="M4.55358 3.44662C4.28501 3.75263 4.21822 3.9728 4.21822 4.02784C4.21828 4.16332 4.17329 4.29548 4.08943 4.40614C4.00558 4.5168 3.88699 4.60052 3.74998 4.64576C2.99513 4.89332 2.23886 5.13708 1.4812 5.37705C1.52901 5.61098 1.60283 5.89275 1.71321 6.16927C1.99163 6.86451 2.35792 7.20788 2.8121 7.20788C3.74998 7.20788 4.61685 7.14956 5.23414 6.90711C5.52943 6.79112 5.73261 6.64631 5.86479 6.47332C5.99415 6.30491 6.09328 6.06181 6.09328 5.68437H7.4994C7.4994 6.29049 7.33418 6.81078 7.00937 7.23474C6.88158 7.40123 6.73102 7.55146 6.56152 7.68164C6.55356 8.52241 6.52003 9.36281 6.46098 10.2018L6.44692 10.4233C6.39841 11.2096 6.37591 11.7541 6.43848 12.1833C6.49613 12.5798 6.62128 12.8334 6.85329 13.0529C7.10991 13.2953 7.54721 13.543 8.33323 13.8196C8.46684 13.8665 8.58193 13.9503 8.66319 14.0598C8.74445 14.1692 8.78802 14.2991 8.78811 14.4322C8.78811 15.2055 8.88091 15.8398 8.96388 16.4118C9.00536 16.6916 9.04403 16.957 9.06863 17.2165C9.10027 17.552 9.12066 17.9832 8.94349 18.3416C8.83852 18.559 8.65996 18.7383 8.43517 18.852C8.21853 18.9563 7.97726 19.0081 7.73352 19.0028C7.70118 19.0028 7.59291 19.0231 7.42136 19.1574C7.24481 19.3011 7.09513 19.4712 6.97843 19.6607L6.97773 19.6626C7.27934 19.6659 7.55846 19.6718 7.81437 19.677L8.33253 19.6862C8.88232 19.6947 9.25072 19.6875 9.50945 19.6482C9.59 19.6386 9.66877 19.6187 9.74357 19.5892C9.75691 19.5835 9.76943 19.5762 9.78083 19.5676C9.78224 19.5656 9.8427 19.4936 9.8427 19.1823V15.0875C9.84276 14.9498 9.8894 14.8155 9.97598 14.7039C10.0626 14.5923 10.1847 14.5089 10.325 14.4657L16.1836 12.6565C16.3398 12.6082 16.5092 12.6125 16.6624 12.6686C16.8155 12.7248 16.9426 12.8292 17.0217 12.9638C17.2516 13.3556 17.4519 13.7147 17.6277 14.0292C17.7254 14.2049 17.8154 14.3661 17.8984 14.5115C18.1395 14.9335 18.3413 15.2553 18.5705 15.5396C19.0134 16.0868 19.6117 16.5586 20.9623 17.2512C21.046 17.2943 21.1195 17.3528 21.1781 17.4232C21.2367 17.4936 21.2793 17.5745 21.3033 17.6608C21.4087 18.0389 21.4277 18.4038 21.2513 18.7406C21.117 18.9962 20.8808 19.1777 20.776 19.2583L20.7422 19.2845C20.6368 19.3697 20.5721 19.4333 20.5173 19.542C20.499 19.5797 20.4835 19.6184 20.4709 19.658H22.0288V16.8377L19.7502 12.2181L21.0277 11.6709L22.4662 14.5869C22.5561 13.9578 22.6159 13.2436 22.5857 12.5359C22.5442 11.5412 22.3291 10.6415 21.8573 10.0059C21.4172 9.41286 20.705 8.98104 19.4514 8.98104C18.8848 8.98104 18.3265 8.98759 17.7831 8.99414C17.0053 9.00783 16.2274 9.00915 15.4496 8.99808C14.2312 8.97318 13.0859 8.87947 12.0377 8.58525C10.9753 8.28711 10.0206 7.78582 9.18182 6.96411C8.3501 6.14896 7.6597 5.04548 7.07475 3.57767C6.82587 2.95385 6.52988 2.74024 6.32599 2.66685C6.11226 2.58952 5.82893 2.6046 5.48232 2.75531C5.13782 2.90602 4.80105 3.1642 4.55428 3.44596L4.55358 3.44662ZM23.435 16.7827V20.3133C23.435 20.4871 23.3609 20.6538 23.229 20.7766C23.0972 20.8995 22.9184 20.9686 22.7319 20.9686H19.6855C19.4991 20.9686 19.3203 20.8995 19.1884 20.7766C19.0566 20.6538 18.9825 20.4871 18.9825 20.3133C18.9825 19.7583 19.0725 19.3324 19.2426 18.991C19.417 18.6397 19.6504 18.4327 19.8212 18.2944L19.9239 18.2105C18.716 17.5625 18.0066 17.0199 17.4477 16.3279C17.1496 15.9597 16.9078 15.5652 16.6575 15.1281C16.5593 14.9556 16.462 14.7826 16.3657 14.6092C16.2715 14.4401 16.1731 14.2632 16.0655 14.0732L11.2488 15.5606V19.1823C11.2488 19.6004 11.1778 20.0342 10.8825 20.3814C10.5774 20.7405 10.1422 20.8795 9.73654 20.9417C9.3358 21.0026 8.84787 21.0046 8.31003 20.9967L7.76446 20.9869C7.28553 20.9757 6.80648 20.9696 6.3274 20.9686C6.03914 20.9686 5.73331 20.8526 5.54841 20.5787C5.39444 20.3513 5.38741 20.1069 5.40147 19.9516C5.43029 19.6305 5.58426 19.2865 5.76425 19.0001C5.96255 18.6798 6.21762 18.3931 6.51863 18.1522C6.809 17.9261 7.20904 17.7086 7.68079 17.6935V17.6909C7.68577 17.5713 7.68154 17.4515 7.66814 17.3325C7.65196 17.1667 7.62173 16.957 7.58658 16.7126C7.51487 16.2133 7.42206 15.5718 7.39183 14.8791C6.74924 14.6223 6.2367 14.3353 5.85213 13.9729C5.35999 13.5077 5.1336 12.969 5.04502 12.359C4.96065 11.7823 4.99651 11.1054 5.04361 10.3486L5.05767 10.1271C5.09072 9.59241 5.12798 8.99349 5.14555 8.31004C4.38133 8.48959 3.53976 8.51842 2.8121 8.51842C1.39191 8.51842 0.702915 7.39659 0.395678 6.62665C0.253076 6.26181 0.146242 5.88567 0.0764882 5.50286C0.0470114 5.34511 0.023561 5.18643 0.0061819 5.02713L0.00336987 4.99568L0.00196351 4.98651V4.98192L0.702915 4.93343L0.475827 4.31289L0.795016 4.21132C1.49757 3.98708 2.1997 3.76167 2.90139 3.53508C3.0188 3.19762 3.23604 2.87784 3.46524 2.61705C3.82591 2.20619 4.32368 1.81434 4.88683 1.56861C5.44928 1.3242 6.14671 1.19707 6.83431 1.44542C7.53104 1.69704 8.05552 2.27499 8.39229 3.1216C8.93364 4.48129 9.53898 5.41309 10.2006 6.06181C10.8544 6.70266 11.5898 7.09189 12.4433 7.33107C13.3102 7.57417 14.3057 7.6646 15.4805 7.68884C16.1892 7.70326 16.9253 7.69409 17.7212 7.68426C18.2668 7.6777 18.8398 7.67115 19.4507 7.67115C21.1268 7.67115 22.2897 8.28449 23.0138 9.26084C23.7064 10.1946 23.9454 11.3865 23.9911 12.4848C24.0382 13.5955 23.8906 14.693 23.7352 15.5023C23.6527 15.9327 23.5526 16.3601 23.435 16.7834V16.7827ZM0.702915 4.93277L0.475827 4.31223C0.32852 4.35912 0.202075 4.45025 0.116317 4.57133C0.0305601 4.69241 -0.00966005 4.83659 0.00196351 4.98126L0.702915 4.93277Z" fill="#421EB7"/>
<path fill-rule="evenodd" clip-rule="evenodd" d="M22.9949 0.191855C23.1267 0.314736 23.2007 0.481377 23.2007 0.655131C23.2007 0.828886 23.1267 0.995526 22.9949 1.11841L12.0974 11.2751C11.9656 11.398 11.7868 11.4671 11.6004 11.4671H6.3274C6.14094 11.4671 5.96212 11.3981 5.83027 11.2752C5.69842 11.1523 5.62434 10.9856 5.62434 10.8118C5.62434 10.638 5.69842 10.4714 5.83027 10.3485C5.96212 10.2256 6.14094 10.1566 6.3274 10.1566H11.3093L22.0007 0.191855C22.1326 0.0690102 22.3114 0 22.4978 0C22.6842 0 22.863 0.0690102 22.9949 0.191855Z" fill="#421EB7"/>
<path fill-rule="evenodd" clip-rule="evenodd" d="M10.8973 14.7435V10.4842H12.3034V14.7435H10.8973Z" fill="#421EB7"/>
</svg>
