<svg width="20" height="18" viewBox="0 0 20 18" fill="none" xmlns="http://www.w3.org/2000/svg">
<path fill-rule="evenodd" clip-rule="evenodd" d="M12.4276 1.07925C13.085 0.806877 13.7895 0.666687 14.5011 0.666687C15.2126 0.666687 15.9172 0.806878 16.5745 1.07925C17.2318 1.35157 17.8289 1.75069 18.3319 2.25381C18.835 2.75677 19.2344 3.35419 19.5067 4.01142C19.7791 4.66876 19.9193 5.37333 19.9193 6.08487C19.9193 6.79642 19.7791 7.50099 19.5067 8.15833C19.2344 8.81562 18.8352 9.41281 18.332 9.9158C18.332 9.91584 18.3321 9.91575 18.332 9.9158L10.9653 17.2825C10.6399 17.6079 10.1123 17.6079 9.78683 17.2825L2.42016 9.9158C1.40414 8.89977 0.833344 7.52175 0.833344 6.08487C0.833344 4.648 1.40414 3.26998 2.42016 2.25395C3.43619 1.23793 4.81421 0.667133 6.25109 0.667133C7.68796 0.667133 9.06598 1.23793 10.082 2.25395L10.3761 2.54803L10.67 2.25409C10.6701 2.25404 10.67 2.25414 10.67 2.25409C11.173 1.7509 11.7703 1.3516 12.4276 1.07925ZM14.5011 2.33335C14.0085 2.33335 13.5207 2.43041 13.0656 2.61897C12.6105 2.80754 12.1971 3.08392 11.8488 3.43233L10.9653 4.3158C10.6399 4.64123 10.1123 4.64123 9.78683 4.3158L8.9035 3.43246C8.20003 2.729 7.24593 2.3338 6.25109 2.3338C5.25624 2.3338 4.30214 2.729 3.59867 3.43246C2.89521 4.13593 2.50001 5.09003 2.50001 6.08487C2.50001 7.07972 2.89521 8.03382 3.59867 8.73729L10.3761 15.5147L17.1535 8.73729C17.5019 8.38904 17.7784 7.97543 17.967 7.52034C18.1556 7.06526 18.2526 6.57748 18.2526 6.08487C18.2526 5.59227 18.1556 5.10449 17.967 4.64941C17.7784 4.19432 17.502 3.78084 17.1536 3.4326C16.8054 3.0842 16.3916 2.80754 15.9366 2.61897C15.4815 2.43041 14.9937 2.33335 14.5011 2.33335Z" fill="#BDBDBD"/>
</svg>
